<?xml version="1.0" standalone="no"?>
<!DOCTYPE svg PUBLIC "-//W3C//DTD SVG 20010904//EN"
 "http://www.w3.org/TR/2001/REC-SVG-20010904/DTD/svg10.dtd">
<svg version="1.0" xmlns="http://www.w3.org/2000/svg"
 width="300.000000pt" height="300.000000pt" viewBox="0 0 300.000000 300.000000"
 preserveAspectRatio="xMidYMid meet">
<metadata>
Created by potrace 1.14, written by Peter Selinger 2001-2017
</metadata>
<g transform="translate(0.000000,300.000000) scale(0.100000,-0.100000)"
fill="#000000" stroke="none">
<path d="M890 2681 c0 -346 -3 -331 55 -331 39 0 53 23 50 82 -1 29 -3 169 -4
311 l-1 257 -50 0 -50 0 0 -319z"/>
<path d="M1060 2690 l0 -311 23 -8 c12 -5 328 -8 701 -8 648 0 680 1 697 18
18 18 19 40 19 319 l0 300 -720 0 -720 0 0 -310z"/>
<path d="M1068 2293 c-27 -7 -25 -89 1 -96 11 -3 331 -5 711 -5 l691 0 15 23
c18 28 10 71 -15 78 -22 5 -1379 5 -1403 0z"/>
<path d="M440 1935 l0 -68 518 8 c761 10 732 9 743 26 13 21 11 67 -3 76 -15
9 6 9 -710 18 l-548 7 0 -67z"/>
<path d="M440 916 l0 -916 1030 0 1030 0 0 300 c0 280 -1 301 -19 319 -18 18
-45 18 -607 18 l-588 0 -28 25 c-27 25 -28 29 -28 127 0 134 6 140 128 142 48
1 98 3 112 4 14 1 65 4 114 5 l88 3 50 43 c27 24 53 44 58 44 6 0 10 131 10
350 0 193 -3 350 -7 350 -5 0 -30 19 -57 42 -47 40 -52 42 -120 44 -39 1 -317
5 -618 9 l-548 8 0 -917z"/>
<path d="M1333 870 c-12 -5 -27 -19 -33 -31 -14 -26 -8 -105 9 -122 14 -14
1164 -18 1177 -4 14 13 8 70 -9 82 -13 9 -112 13 -374 14 l-358 2 -33 32 -33
32 -162 2 c-89 0 -172 -3 -184 -7z"/>
</g>
</svg>
